<?xml version="1.0" standalone="no"?>
<!DOCTYPE svg PUBLIC "-//W3C//DTD SVG 20010904//EN"
 "http://www.w3.org/TR/2001/REC-SVG-20010904/DTD/svg10.dtd">
<svg version="1.0" xmlns="http://www.w3.org/2000/svg"
 width="398.000000pt" height="234.000000pt" viewBox="0 0 398.000000 234.000000"
 preserveAspectRatio="xMidYMid meet">

<g transform="translate(0.000000,234.000000) scale(0.100000,-0.100000)"
fill="#000000" stroke="none">
<path d="M0 1921 l0 -190 33 -3 32 -3 0 -555 0 -555 -33 -3 -32 -3 0 -180 0
-179 1990 0 1990 0 0 930 0 930 -1990 0 -1990 0 0 -189z m248 2 l-3 -78 -80 0
-80 0 -3 64 c-2 35 -1 70 2 77 4 10 27 14 86 14 l81 0 -3 -77z m462 -3 l0 -80
-90 0 -90 0 0 80 0 80 90 0 90 0 0 -80z m465 0 l0 -75 -90 0 -90 0 -3 64 c-4
94 -6 92 95 89 l88 -3 0 -75z m460 0 l0 -75 -90 0 -90 0 -3 64 c-4 94 -6 92
95 89 l88 -3 0 -75z m463 3 l-3 -78 -85 0 -85 0 -3 78 -3 77 91 0 91 0 -3 -77z
m467 -3 l0 -75 -90 0 -90 0 -3 64 c-4 94 -6 92 95 89 l88 -3 0 -75z m460 0 l0
-75 -90 0 -90 0 -3 64 c-4 94 -6 92 95 89 l88 -3 0 -75z m465 0 l0 -81 -87 3
-88 3 -3 64 c-2 35 -1 70 2 77 4 10 28 14 91 14 l85 0 0 -80z m455 0 l0 -75
-85 0 -85 0 -3 64 c-4 93 -6 92 90 89 l83 -3 0 -75z m-185 -750 l0 -560 -1730
0 -1730 0 0 560 0 560 1730 0 1730 0 0 -560z m-3510 -724 c0 -58 -3 -75 -16
-80 -28 -11 -130 -6 -142 6 -13 13 -17 130 -5 141 3 4 42 7 85 7 l78 0 0 -74z
m460 0 c0 -85 -1 -86 -90 -86 -89 0 -90 1 -90 86 l0 74 90 0 90 0 0 -74z m468
6 c4 -84 -4 -92 -88 -92 -100 0 -100 0 -100 86 l0 75 93 -3 92 -3 3 -63z m462
-6 c0 -85 -1 -86 -91 -86 -89 0 -99 8 -99 84 0 34 3 66 7 69 3 4 46 7 95 7
l88 0 0 -74z m460 0 c0 -85 -1 -86 -90 -86 -89 0 -90 1 -90 86 l0 74 90 0 90
0 0 -74z m468 6 c4 -84 -4 -92 -88 -92 -100 0 -100 0 -100 86 l0 75 93 -3 92
-3 3 -63z m462 -6 c0 -85 -1 -86 -91 -86 -89 0 -99 8 -99 84 0 34 3 66 7 69 3
4 46 7 95 7 l88 0 0 -74z m460 0 c0 -85 -1 -86 -90 -86 -89 0 -90 1 -90 86 l0
74 90 0 90 0 0 -74z m458 6 c2 -38 -2 -69 -9 -78 -15 -18 -140 -19 -157 -2
-13 13 -17 130 -5 142 4 4 43 5 88 4 l80 -3 3 -63z"/>
</g>
</svg>
