<svg width="139" height="55" viewBox="0 0 139 55" fill="none" xmlns="http://www.w3.org/2000/svg">
<g id="Group 17">
<path id="Vector" d="M2.02627 25.3729C1.49836 25.4681 8.33508 25.4068 8.19877 28.0793C8.12771 29.4524 6.85372 30.6631 5.90447 31.6079C5.44984 32.0603 4.04959 33.1883 4.71544 33.0947C6.54271 32.8377 9.94522 33.3389 9.47883 35.8192C9.42341 36.1092 8.34112 37.6429 8.37678 37.859C8.40823 38.0496 11.191 37.8593 11.5732 38.5413C12.3012 39.8499 8.83128 41.4825 9.2795 42.0691C9.96732 42.9647 14.8167 41.7861 13.8119 44.6368C13.4071 45.7823 12.485 46.2922 11.7667 47.1851C11.1406 47.9674 11.405 50.334 10.8301 51.4655C10.7023 51.7172 9.38769 53.929 9.61878 54.0865C10.2135 54.4878 12.0788 53.4704 12.572 53.2947C14.992 52.4319 17.6701 51.5112 20.1883 50.9042C33.0664 47.7997 45.2684 44.8004 58.6304 43.6122C68.6763 42.7204 78.832 42.324 88.848 41.2498C98.9104 40.1697 109.07 38.6884 119.144 38.1208C122.384 37.9375 125.604 37.257 128.84 37.1342C130.611 37.0671 134.152 36.9533 134.152 36.9533C134.152 36.9533 128.267 36.3774 128.616 34.5259C128.933 32.8445 131.151 32.6974 132.035 31.5942C132.72 30.7445 128.735 30.9414 129.09 29.9345C129.329 29.258 131.6 28.9561 131.518 28.4619C131.372 27.5766 126.831 28.3397 127.126 25.4968C127.248 24.3074 130.183 22.8615 130.053 22.0711C129.966 21.5489 126.017 21.7686 125.503 20.6359C124.846 19.1928 126.104 17.7047 127.364 16.9808C127.495 16.9055 129.803 15.7746 129.621 15.7215C125.821 14.5963 118.899 12.9321 118.549 10.8672C118.159 8.56265 127.894 5.08627 129.433 4.62292C129.765 4.52261 133.836 2.81819 133.236 2.76865C119.819 1.65945 113.145 4.23635 106.576 5.16003C98.2926 6.32484 92.0088 6.80739 83.8989 8.76743C71.2905 11.8063 58.113 13.9003 45.1945 15.7168C35.908 17.0226 25.1241 15.1371 16.3743 18.5034C13.4225 19.6385 9.58716 20.269 6.59296 21.6772C5.63754 22.1197 1.81038 25.4033 2.02627 25.3729Z" fill="#9B8F74"/>
<path id="Vector_2" d="M9.32987 37.9808C11.0473 36.2949 12.5595 34.3578 13.6026 32.0328C14.8455 29.2625 15.8603 26.3167 16.8744 23.3728C17.5338 21.4585 18.1929 19.5449 18.9144 17.6808C21.2423 17.0552 23.6814 16.7206 26.1724 16.536C23.9585 19.4209 21.4264 22.9149 20.578 26.64C19.6715 30.6207 16.2578 38.1252 14.0763 41.2491C13.8272 41.606 13.5938 41.9742 13.3606 42.3417C13.258 42.5035 13.1554 42.6653 13.0516 42.8261C12.4987 42.6218 11.7684 42.5628 11.0926 42.5083C10.2655 42.4416 9.51977 42.3815 9.28 42.0694C9.09401 41.8259 9.58254 41.4025 10.1658 40.8968C10.9885 40.1836 11.9997 39.3073 11.5737 38.5416C11.3374 38.12 10.1838 38.0316 9.32987 37.9808Z" fill="#AB9F80"/>
<path id="Vector_3" d="M23.6205 50.0759C27.1583 46.3597 30.4299 42.3789 32.1758 37.121C32.8855 34.9833 33.0795 32.7188 33.2746 30.4444C33.3918 29.0788 33.5093 27.7095 33.7389 26.3621C34.3347 22.8642 35.2102 19.5102 36.3233 16.2605C38.7273 16.2258 41.1069 16.1556 43.4107 15.928C43.6933 18.4635 43.5852 21.1058 42.4321 23.2065C41.9263 24.1281 41.5752 25.1755 41.2254 26.2184C41.0207 26.8289 40.8166 27.4378 40.5822 28.019C40.1862 29.001 39.7602 29.9651 39.3345 30.9291C38.7872 32.1678 38.2398 33.4065 37.7561 34.6837C37.5966 35.1041 37.437 35.5348 37.2753 35.9712C36.4759 38.1274 35.6256 40.4206 34.5224 42.2786C33.9723 43.2051 33.3653 44.0616 32.7617 44.9134C31.9586 46.0464 31.161 47.1719 30.5096 48.4449C28.2227 48.9733 25.93 49.5205 23.6205 50.0759Z" fill="#AB9F80"/>
<path id="Vector_4" d="M54.5559 14.3485C53.2877 17.1885 52.1922 20.1313 51.3472 23.1736C49.7105 29.067 49.6052 36.1429 50.2845 42.4678L50.2967 42.5797C50.3684 43.2488 50.4394 43.9095 50.5002 44.5635C52.5989 44.2619 54.7183 43.9987 56.8656 43.781C57.1103 42.2983 57.169 40.8125 56.9278 39.351C56.7901 38.5167 56.6307 37.67 56.47 36.8159C55.747 32.976 54.9956 28.9849 56.0625 25.2857C56.5116 23.728 57.201 22.3003 57.89 20.8735C58.5726 19.4603 59.2543 18.048 59.7021 16.5111C60.0133 15.4431 60.3784 14.403 60.7483 13.3652C58.6849 13.7057 56.6198 14.0326 54.5559 14.3485Z" fill="#AB9F80"/>
<path id="Vector_5" d="M70.6771 11.6025C70.2349 14.0911 69.967 16.6145 70.0303 19.2105C70.054 20.1922 70.0874 21.1866 70.1207 22.1883C70.2728 26.7311 70.4296 31.4249 69.7458 35.7761C69.3722 38.1542 68.9854 40.5268 68.5182 42.854C69.4799 42.7878 70.4419 42.723 71.4037 42.6579C72.9493 42.5534 74.4949 42.4489 76.0396 42.34C76.1334 40.636 76.0888 38.9327 75.8142 37.2685C75.6506 36.2771 75.6849 35.4843 75.7232 34.5932C75.7359 34.3013 75.7489 33.9989 75.7554 33.6753C75.7592 33.4943 75.7628 33.3125 75.7666 33.1302C75.8113 30.9156 75.8575 28.619 76.0582 26.4457C76.1298 25.669 75.966 24.8308 75.8078 24.0221C75.7561 23.7582 75.7051 23.4974 75.6631 23.2429C75.2864 20.9602 75.3629 18.6243 75.4384 16.3227C75.4616 15.6139 75.4846 14.9084 75.4943 14.2087C75.5114 12.9898 75.6297 11.7795 75.8036 10.5799C74.1012 10.9344 72.3916 11.2748 70.6771 11.6025Z" fill="#AB9F80"/>
<path id="Vector_6" d="M89.325 41.1979C88.1951 40.0648 87.1194 38.8713 86.1958 37.5439C81.6324 30.9859 83.8577 21.2814 85.8332 14.6305C86.575 12.1334 87.4989 9.87987 88.5608 7.75424C92.0504 7.07942 95.3114 6.62927 98.7248 6.18912C98.1739 7.60788 97.5096 8.95997 96.8447 10.313C96.1575 11.7115 95.47 13.111 94.9065 14.5863C94.431 15.8315 93.8768 17.0682 93.3181 18.3146C92.0784 21.0803 90.8175 23.8933 90.3502 26.9508C89.8907 29.9563 90.6566 34.207 91.4764 37.1755C91.8836 38.6493 92.7047 39.7537 93.7053 40.7032C92.2436 40.8734 90.7834 41.0397 89.325 41.1979Z" fill="#AB9F80"/>
<path id="Vector_7" d="M107.276 5.05595C106.959 6.29685 106.661 7.54706 106.533 8.8512C106.129 12.962 106.29 17.093 106.973 21.2302C107.112 22.0746 107.369 22.8834 107.625 23.6915C107.835 24.3515 108.044 25.011 108.19 25.6893C108.712 28.1308 107.777 31.4016 106.846 33.4085C106.69 33.7447 106.499 34.1058 106.303 34.478C105.851 35.334 105.369 36.2484 105.204 37.0534C105.046 37.8264 104.94 38.6071 104.879 39.393C106.368 39.2257 107.856 39.0647 109.345 38.9143C109.221 36.5192 109.109 33.7781 110.153 32.0859C111.257 30.2977 111.36 28.5569 111.489 26.3749C111.494 26.288 111.499 26.2003 111.504 26.112C111.534 25.6184 111.592 25.1087 111.652 24.5913C111.841 22.946 112.039 21.2223 111.34 19.6963C110.499 17.8594 109.907 15.7071 109.578 13.7081C109.32 12.1483 109.545 10.6356 109.769 9.12727C109.851 8.57699 109.933 8.02736 109.991 7.47621C110.104 6.40899 110.322 5.41876 110.571 4.45284C109.444 4.67753 108.355 4.88641 107.276 5.05595Z" fill="#AB9F80"/>
<path id="Vector_8" d="M118.741 15.7348C117.778 17.7685 117.004 19.4024 116.992 22.8495C116.98 26.2066 117.18 29.6482 117.379 33.092C117.478 34.8009 117.577 36.5103 117.65 38.2103C118.148 38.178 118.645 38.1477 119.142 38.1199C119.999 38.0711 120.856 37.9878 121.711 37.8892C121.705 37.8094 121.7 37.7296 121.695 37.6498C121.601 36.2674 121.508 34.8887 121.437 33.5193C121.318 31.2256 121.804 29.2741 122.289 27.3272C122.774 25.3754 123.259 23.4276 123.132 21.1443C123.064 19.9235 123.229 18.3062 123.393 16.6898C123.489 15.7465 123.585 14.8036 123.635 13.9399C122.298 13.4904 121.053 13.0018 120.129 12.4773C119.663 13.7885 119.182 14.8036 118.741 15.7348Z" fill="#AB9F80"/>
<path id="Vector_9" d="M121.309 8.06027C122.603 7.32482 124.169 6.61861 125.592 6.03626C125.553 5.85468 125.513 5.67165 125.473 5.48853C125.235 4.39548 124.996 3.30119 125.043 2.52093C124 2.54944 123.006 2.60148 122.056 2.67212C121.858 4.79516 121.601 6.56219 121.309 8.06027Z" fill="#AB9F80"/>
</g>
</svg>
